<svg width="60" height="60" viewBox="0 0 60 60" fill="none" xmlns="http://www.w3.org/2000/svg">
  <!-- Outer circle background -->
  <circle cx="30" cy="30" r="28" fill="#1976D2" stroke="#00BCD4" stroke-width="2"/>
  
  <!-- Tooth shape -->
  <path d="M30 12C34.5 12 38 15.5 38 20V28C38 32.5 34.5 36 30 36C25.5 36 22 32.5 22 28V20C22 15.5 25.5 12 30 12Z" fill="white"/>
  
  <!-- Tooth roots -->
  <path d="M26 36V42C26 43.1 26.9 44 28 44C29.1 44 30 43.1 30 42V36" fill="white"/>
  <path d="M30 36V42C30 43.1 30.9 44 32 44C33.1 44 34 43.1 34 42V36" fill="white"/>
  
  <!-- Sparkle/shine effect -->
  <circle cx="27" cy="20" r="2" fill="#00BCD4" opacity="0.8"/>
  <circle cx="33" cy="24" r="1.5" fill="#4CAF50" opacity="0.6"/>
  
  <!-- Cross symbol for medical -->
  <rect x="28.5" y="46" width="3" height="8" fill="#4CAF50" rx="1"/>
  <rect x="25" y="49.5" width="10" height="3" fill="#4CAF50" rx="1"/>
  
  <!-- Text curve around bottom -->
  <defs>
    <path id="textcircle" d="M 10 30 A 20 20 0 0 1 50 30"/>
  </defs>
  <text font-family="Inter, sans-serif" font-size="8" font-weight="600" fill="white">
    <textPath href="#textcircle" startOffset="25%">DENTAL CARE</textPath>
  </text>
</svg>
